<?xml version="1.0" encoding="utf-8"?>
<!-- Generator: Adobe Illustrator 23.0.5, SVG Export Plug-In . SVG Version: 6.00 Build 0)  -->
<svg version="1.1" id="Layer_1" xmlns="http://www.w3.org/2000/svg" xmlns:xlink="http://www.w3.org/1999/xlink" x="0px" y="0px"
	 viewBox="0 0 800 800" style="enable-background:new 0 0 800 800;" xml:space="preserve">
<style type="text/css">
	.st0{opacity:0.5;fill:none;stroke:#F2F2F2;stroke-width:90;stroke-miterlimit:10;}
	.st1{opacity:0.5;}
	.st2{fill:#F2F2F2;}
</style>
<circle class="st0" cx="400" cy="400" r="323.43"/>
<g class="st1">
	<g>
		<path class="st2" d="M507.93,478.06c-31.8-22.68-63.61-45.36-95.41-68.04c-4.45-3.17-8.9-6.35-13.35-9.52
			c5.94,10.36,11.89,20.72,17.83,31.08c0.47-46.85,0.94-93.7,1.41-140.55c0.07-6.62,0.13-13.24,0.2-19.86
			c0.19-18.84-16.69-36.86-36-36c-19.67,0.88-35.8,15.82-36,36c-0.43,43.37-0.87,86.74-1.3,130.11c-0.09,8.73-0.17,17.46-0.26,26.2
			c-0.01,1.36-0.06,2.72-0.04,4.08c0.24,13.87,7.22,23.42,18.03,31.25c0.58,0.42,1.17,0.84,1.76,1.25
			c18.15,12.94,36.3,25.89,54.45,38.83c17.45,12.45,34.9,24.89,52.35,37.34c7.2,5.14,19.53,5.89,27.74,3.63
			c8.35-2.3,17.4-8.76,21.51-16.54c4.41-8.35,6.63-18.48,3.63-27.74C521.44,490.2,515.94,483.77,507.93,478.06L507.93,478.06z"/>
	</g>
</g>
</svg>
